<svg width="24" height="25" viewBox="0 0 24 25" fill="none" xmlns="http://www.w3.org/2000/svg">
<path d="M4.57617 7.96875V16.5H2.82422V7.96875H4.57617ZM7.20117 7.96875V9.3457H0.240234V7.96875H7.20117ZM10.8223 16.5H8.96484L8.97656 15.1289H10.8223C11.2832 15.1289 11.6719 15.0254 11.9883 14.8184C12.3047 14.6074 12.543 14.3008 12.7031 13.8984C12.8672 13.4961 12.9492 13.0098 12.9492 12.4395V12.0234C12.9492 11.5859 12.9023 11.2012 12.8086 10.8691C12.7188 10.5371 12.584 10.2578 12.4043 10.0312C12.2246 9.80469 12.0039 9.63477 11.7422 9.52148C11.4805 9.4043 11.1797 9.3457 10.8398 9.3457H8.92969V7.96875H10.8398C11.4102 7.96875 11.9316 8.06641 12.4043 8.26172C12.8809 8.45312 13.293 8.72852 13.6406 9.08789C13.9883 9.44727 14.2559 9.87695 14.4434 10.377C14.6348 10.873 14.7305 11.4258 14.7305 12.0352V12.4395C14.7305 13.0449 14.6348 13.5977 14.4434 14.0977C14.2559 14.5977 13.9883 15.0273 13.6406 15.3867C13.2969 15.7422 12.8848 16.0176 12.4043 16.2129C11.9277 16.4043 11.4004 16.5 10.8223 16.5ZM9.96094 7.96875V16.5H8.20312V7.96875H9.96094ZM15.3047 15.6855C15.3047 15.4355 15.3906 15.2266 15.5625 15.0586C15.7383 14.8906 15.9707 14.8066 16.2598 14.8066C16.5488 14.8066 16.7793 14.8906 16.9512 15.0586C17.127 15.2266 17.2148 15.4355 17.2148 15.6855C17.2148 15.9355 17.127 16.1445 16.9512 16.3125C16.7793 16.4805 16.5488 16.5645 16.2598 16.5645C15.9707 16.5645 15.7383 16.4805 15.5625 16.3125C15.3906 16.1445 15.3047 15.9355 15.3047 15.6855Z" fill="white"/>
<path d="M23.373 16.5V17.7832H18.0527V16.5H23.373Z" fill="#2ECC71"/>
</svg>
